<mxfile host="app.diagrams.net" modified="2024-04-12T14:09:31.224Z" agent="Mozilla/5.0 (Windows NT 10.0; Win64; x64) AppleWebKit/537.36 (KHTML, like Gecko) Chrome/123.0.0.0 Safari/537.36 Edg/123.0.0.0" version="24.2.3" etag="v08zsC9tEeY0mBBqD9m9" type="github">
  <diagram name="Page-1" id="Trqm5uInfNL8lf0fduln">
    <mxGraphModel>
      <root>
        <mxCell id="0" />
        <mxCell id="1" parent="0" />
      </root>
    </mxGraphModel>
  </diagram>
</mxfile>
